<svg width="843" height="24" viewBox="0 0 843 24" fill="none" xmlns="http://www.w3.org/2000/svg">
<rect width="32" height="24" rx="4" fill="#F6F6FA"/>
<path d="M17.6811 8.84383L15.8643 12.7584H15.6805V8.00037H13.0851V16.0024H15.2371C15.8211 16.0024 16.3402 15.6672 16.5889 15.1482L18.4165 11.2445H18.6004V16.0024H21.1958V8.00037H19.0113C18.449 8.00037 17.9191 8.33559 17.6811 8.84383Z" fill="#319B42"/>
<path d="M7.97243 9.04929L6.90182 12.7584H6.71798L5.63656 9.04929C5.45271 8.4221 4.87956 8.00037 4.2307 8.00037H1.66772V16.0024H4.26315V11.2445H4.44699L5.93935 16.0024H7.66963L9.162 11.2445H9.34584V16.0024H11.9413V8.00037H9.37829C8.72943 8.00037 8.14546 8.4221 7.97243 9.04929Z" fill="#319B42"/>
<path d="M22.3243 11.5675V16.0024H24.9206V13.4064H27.7115C28.9231 13.4064 29.9508 12.6383 30.3294 11.5675H22.3243Z" fill="#319B42"/>
<path d="M27.6357 8.00037H21.859C22.216 9.90417 23.8819 11.2455 25.8832 11.2455H30.3725C30.405 11.0724 30.4266 10.8777 30.4266 10.683C30.4266 9.13616 29.1826 8.00037 27.6357 8.00037Z" fill="url(#paint0_linear_7_2280)"/>
<path d="M45.6562 19H44.375V9.32031C44.276 9.41927 44.1302 9.53385 43.9375 9.66406C43.75 9.78906 43.5365 9.91406 43.2969 10.0391C43.0625 10.1641 42.8125 10.2812 42.5469 10.3906C42.2865 10.5 42.0312 10.5859 41.7812 10.6484V9.35156C42.0625 9.27344 42.3594 9.16927 42.6719 9.03906C42.9896 8.90365 43.2995 8.75521 43.6016 8.59375C43.9089 8.42708 44.1979 8.25521 44.4688 8.07812C44.7396 7.89583 44.974 7.71875 45.1719 7.54688H45.6562V19ZM54.6562 10.7344C54.6562 10.3906 54.6016 10.0911 54.4922 9.83594C54.388 9.58073 54.2422 9.36979 54.0547 9.20312C53.8724 9.03125 53.6562 8.90365 53.4062 8.82031C53.1562 8.73698 52.8854 8.69531 52.5938 8.69531C52.3438 8.69531 52.099 8.72917 51.8594 8.79688C51.6198 8.86458 51.3854 8.95833 51.1562 9.07812C50.9323 9.19792 50.7135 9.34115 50.5 9.50781C50.2917 9.67448 50.0964 9.85938 49.9141 10.0625V8.6875C50.2734 8.33854 50.6745 8.07292 51.1172 7.89062C51.5651 7.70312 52.1094 7.60938 52.75 7.60938C53.2083 7.60938 53.6328 7.67708 54.0234 7.8125C54.4141 7.94271 54.7526 8.13542 55.0391 8.39062C55.3255 8.64583 55.5495 8.96094 55.7109 9.33594C55.8776 9.71094 55.9609 10.1406 55.9609 10.625C55.9609 11.0677 55.9089 11.4688 55.8047 11.8281C55.7057 12.1875 55.5521 12.526 55.3438 12.8438C55.1406 13.1615 54.8828 13.4661 54.5703 13.7578C54.2578 14.0495 53.8906 14.3464 53.4688 14.6484C52.9427 15.0234 52.5078 15.3438 52.1641 15.6094C51.8255 15.875 51.5547 16.125 51.3516 16.3594C51.1536 16.5885 51.013 16.8203 50.9297 17.0547C50.8516 17.2839 50.8125 17.5495 50.8125 17.8516H56.3906V19H49.4766V18.4453C49.4766 17.9661 49.5286 17.5443 49.6328 17.1797C49.737 16.8151 49.9089 16.4688 50.1484 16.1406C50.388 15.8125 50.7005 15.4844 51.0859 15.1562C51.4766 14.8281 51.9531 14.4583 52.5156 14.0469C52.9219 13.7552 53.2604 13.4766 53.5312 13.2109C53.8073 12.9453 54.0286 12.6797 54.1953 12.4141C54.362 12.1484 54.4792 11.8802 54.5469 11.6094C54.6198 11.3333 54.6562 11.0417 54.6562 10.7344ZM64.6953 15.8281C64.6953 16.3333 64.599 16.7943 64.4062 17.2109C64.2188 17.6224 63.9505 17.9766 63.6016 18.2734C63.2578 18.5651 62.8438 18.7917 62.3594 18.9531C61.875 19.1146 61.3411 19.1953 60.7578 19.1953C59.6901 19.1953 58.8411 18.9922 58.2109 18.5859V17.2109C58.9661 17.8047 59.8307 18.1016 60.8047 18.1016C61.1953 18.1016 61.5469 18.0521 61.8594 17.9531C62.1771 17.8542 62.4479 17.7109 62.6719 17.5234C62.901 17.3359 63.0755 17.1094 63.1953 16.8438C63.3203 16.5781 63.3828 16.2786 63.3828 15.9453C63.3828 14.4818 62.3411 13.75 60.2578 13.75H59.3281V12.6641H60.2109C62.0547 12.6641 62.9766 11.9766 62.9766 10.6016C62.9766 9.33073 62.2734 8.69531 60.8672 8.69531C60.0755 8.69531 59.3333 8.96094 58.6406 9.49219V8.25C59.3542 7.82292 60.2031 7.60938 61.1875 7.60938C61.6562 7.60938 62.0807 7.67448 62.4609 7.80469C62.8411 7.9349 63.1667 8.11719 63.4375 8.35156C63.7083 8.58594 63.9167 8.86719 64.0625 9.19531C64.2135 9.52344 64.2891 9.88542 64.2891 10.2812C64.2891 11.7552 63.5443 12.7031 62.0547 13.125V13.1562C62.4349 13.1979 62.7865 13.2917 63.1094 13.4375C63.4323 13.5781 63.7109 13.763 63.9453 13.9922C64.1797 14.2214 64.362 14.4922 64.4922 14.8047C64.6276 15.112 64.6953 15.4531 64.6953 15.8281ZM72.5156 7.79688V15.1953H73.9531V16.3672H72.5156V19H71.25V16.3672H65.9844V15.2578C66.474 14.7057 66.9688 14.1172 67.4688 13.4922C67.9688 12.862 68.4453 12.224 68.8984 11.5781C69.3568 10.9323 69.7786 10.2891 70.1641 9.64844C70.5547 9.0026 70.8828 8.38542 71.1484 7.79688H72.5156ZM67.4297 15.1953H71.25V9.71094C70.8594 10.3932 70.4896 11.0026 70.1406 11.5391C69.7917 12.0755 69.4583 12.5625 69.1406 13C68.8281 13.4375 68.5286 13.8333 68.2422 14.1875C67.9557 14.5417 67.6849 14.8776 67.4297 15.1953ZM86.4609 15.5781C86.4609 16.125 86.3672 16.6198 86.1797 17.0625C85.9922 17.5052 85.724 17.8854 85.375 18.2031C85.0312 18.5208 84.6146 18.7656 84.125 18.9375C83.6354 19.1094 83.0911 19.1953 82.4922 19.1953C81.4505 19.1953 80.6771 19.0391 80.1719 18.7266V17.3672C80.9323 17.8568 81.7109 18.1016 82.5078 18.1016C82.9141 18.1016 83.2786 18.0417 83.6016 17.9219C83.9297 17.8021 84.2083 17.6354 84.4375 17.4219C84.6667 17.2083 84.8411 16.9505 84.9609 16.6484C85.0859 16.3464 85.1484 16.0156 85.1484 15.6562C85.1484 14.9271 84.9036 14.3568 84.4141 13.9453C83.9245 13.5286 83.2135 13.3203 82.2812 13.3203C82.1302 13.3203 81.9714 13.3229 81.8047 13.3281C81.638 13.3333 81.4714 13.3411 81.3047 13.3516C81.138 13.3568 80.974 13.3646 80.8125 13.375C80.6562 13.3854 80.513 13.3984 80.3828 13.4141L80.7656 7.79688H85.9453V8.95312H81.875L81.6484 12.2422C81.8151 12.2318 81.9922 12.224 82.1797 12.2188C82.3672 12.2083 82.5339 12.2031 82.6797 12.2031C83.2734 12.2031 83.8047 12.2812 84.2734 12.4375C84.7422 12.5938 85.138 12.8177 85.4609 13.1094C85.7891 13.3958 86.0365 13.75 86.2031 14.1719C86.375 14.5885 86.4609 15.0573 86.4609 15.5781ZM95.5 15.4453C95.5 15.9922 95.4115 16.4948 95.2344 16.9531C95.0573 17.4115 94.8125 17.8073 94.5 18.1406C94.1875 18.474 93.8151 18.7344 93.3828 18.9219C92.9505 19.1042 92.4818 19.1953 91.9766 19.1953C91.4141 19.1953 90.9089 19.0781 90.4609 18.8438C90.0182 18.6094 89.6406 18.2734 89.3281 17.8359C89.0208 17.3932 88.7865 16.8542 88.625 16.2188C88.4635 15.5833 88.3828 14.8672 88.3828 14.0703C88.3828 13.0964 88.4896 12.2135 88.7031 11.4219C88.9219 10.625 89.2292 9.94531 89.625 9.38281C90.026 8.8151 90.5078 8.3776 91.0703 8.07031C91.6328 7.76302 92.2604 7.60938 92.9531 7.60938C93.724 7.60938 94.3438 7.71615 94.8125 7.92969V9.14062C94.2344 8.84375 93.625 8.69531 92.9844 8.69531C92.4844 8.69531 92.0339 8.80729 91.6328 9.03125C91.2318 9.25521 90.888 9.57292 90.6016 9.98438C90.3151 10.3906 90.0938 10.8828 89.9375 11.4609C89.7865 12.0391 89.7109 12.6823 89.7109 13.3906H89.7422C90.2578 12.4583 91.1094 11.9922 92.2969 11.9922C92.7865 11.9922 93.2266 12.0755 93.6172 12.2422C94.013 12.4089 94.349 12.6458 94.625 12.9531C94.9062 13.2552 95.1224 13.6172 95.2734 14.0391C95.4245 14.4609 95.5 14.9297 95.5 15.4453ZM94.1875 15.6094C94.1875 15.2188 94.138 14.8672 94.0391 14.5547C93.9401 14.2422 93.7969 13.9766 93.6094 13.7578C93.4271 13.5391 93.2005 13.3724 92.9297 13.2578C92.6589 13.138 92.3516 13.0781 92.0078 13.0781C91.6901 13.0781 91.3958 13.138 91.125 13.2578C90.8542 13.3776 90.6198 13.5417 90.4219 13.75C90.224 13.9531 90.0677 14.1927 89.9531 14.4688C89.8438 14.7396 89.7891 15.0286 89.7891 15.3359C89.7891 15.7214 89.8438 16.0833 89.9531 16.4219C90.0625 16.7552 90.2161 17.0469 90.4141 17.2969C90.612 17.5469 90.8464 17.7448 91.1172 17.8906C91.3932 18.0312 91.6979 18.1016 92.0312 18.1016C92.3542 18.1016 92.6484 18.0417 92.9141 17.9219C93.1797 17.7969 93.4062 17.625 93.5938 17.4062C93.7812 17.1875 93.9271 16.9271 94.0312 16.625C94.1354 16.3177 94.1875 15.9792 94.1875 15.6094ZM99.4062 15.8125C98.8646 15.8125 98.3984 15.6224 98.0078 15.2422C97.6172 14.862 97.4219 14.401 97.4219 13.8594C97.4219 13.3229 97.6172 12.8594 98.0078 12.4688C98.3984 12.0729 98.8646 11.875 99.4062 11.875C99.9479 11.875 100.409 12.0703 100.789 12.4609C101.169 12.8516 101.359 13.3177 101.359 13.8594C101.359 14.401 101.169 14.862 100.789 15.2422C100.409 15.6224 99.9479 15.8125 99.4062 15.8125ZM105.906 15.8125C105.365 15.8125 104.898 15.6224 104.508 15.2422C104.117 14.862 103.922 14.401 103.922 13.8594C103.922 13.3229 104.117 12.8594 104.508 12.4688C104.898 12.0729 105.365 11.875 105.906 11.875C106.448 11.875 106.909 12.0703 107.289 12.4609C107.669 12.8516 107.859 13.3177 107.859 13.8594C107.859 14.401 107.669 14.862 107.289 15.2422C106.909 15.6224 106.448 15.8125 105.906 15.8125ZM116.797 15.8125C116.255 15.8125 115.789 15.6224 115.398 15.2422C115.008 14.862 114.812 14.401 114.812 13.8594C114.812 13.3229 115.008 12.8594 115.398 12.4688C115.789 12.0729 116.255 11.875 116.797 11.875C117.339 11.875 117.799 12.0703 118.18 12.4609C118.56 12.8516 118.75 13.3177 118.75 13.8594C118.75 14.401 118.56 14.862 118.18 15.2422C117.799 15.6224 117.339 15.8125 116.797 15.8125ZM123.297 15.8125C122.755 15.8125 122.289 15.6224 121.898 15.2422C121.508 14.862 121.312 14.401 121.312 13.8594C121.312 13.3229 121.508 12.8594 121.898 12.4688C122.289 12.0729 122.755 11.875 123.297 11.875C123.839 11.875 124.299 12.0703 124.68 12.4609C125.06 12.8516 125.25 13.3177 125.25 13.8594C125.25 14.401 125.06 14.862 124.68 15.2422C124.299 15.6224 123.839 15.8125 123.297 15.8125ZM129.797 15.8125C129.255 15.8125 128.789 15.6224 128.398 15.2422C128.008 14.862 127.812 14.401 127.812 13.8594C127.812 13.3229 128.008 12.8594 128.398 12.4688C128.789 12.0729 129.255 11.875 129.797 11.875C130.339 11.875 130.799 12.0703 131.18 12.4609C131.56 12.8516 131.75 13.3177 131.75 13.8594C131.75 14.401 131.56 14.862 131.18 15.2422C130.799 15.6224 130.339 15.8125 129.797 15.8125ZM136.297 15.8125C135.755 15.8125 135.289 15.6224 134.898 15.2422C134.508 14.862 134.312 14.401 134.312 13.8594C134.312 13.3229 134.508 12.8594 134.898 12.4688C135.289 12.0729 135.755 11.875 136.297 11.875C136.839 11.875 137.299 12.0703 137.68 12.4609C138.06 12.8516 138.25 13.3177 138.25 13.8594C138.25 14.401 138.06 14.862 137.68 15.2422C137.299 15.6224 136.839 15.8125 136.297 15.8125ZM149.578 19H148.297V9.32031C148.198 9.41927 148.052 9.53385 147.859 9.66406C147.672 9.78906 147.458 9.91406 147.219 10.0391C146.984 10.1641 146.734 10.2812 146.469 10.3906C146.208 10.5 145.953 10.5859 145.703 10.6484V9.35156C145.984 9.27344 146.281 9.16927 146.594 9.03906C146.911 8.90365 147.221 8.75521 147.523 8.59375C147.831 8.42708 148.12 8.25521 148.391 8.07812C148.661 7.89583 148.896 7.71875 149.094 7.54688H149.578V19ZM158.578 10.7344C158.578 10.3906 158.523 10.0911 158.414 9.83594C158.31 9.58073 158.164 9.36979 157.977 9.20312C157.794 9.03125 157.578 8.90365 157.328 8.82031C157.078 8.73698 156.807 8.69531 156.516 8.69531C156.266 8.69531 156.021 8.72917 155.781 8.79688C155.542 8.86458 155.307 8.95833 155.078 9.07812C154.854 9.19792 154.635 9.34115 154.422 9.50781C154.214 9.67448 154.018 9.85938 153.836 10.0625V8.6875C154.195 8.33854 154.596 8.07292 155.039 7.89062C155.487 7.70312 156.031 7.60938 156.672 7.60938C157.13 7.60938 157.555 7.67708 157.945 7.8125C158.336 7.94271 158.674 8.13542 158.961 8.39062C159.247 8.64583 159.471 8.96094 159.633 9.33594C159.799 9.71094 159.883 10.1406 159.883 10.625C159.883 11.0677 159.831 11.4688 159.727 11.8281C159.628 12.1875 159.474 12.526 159.266 12.8438C159.062 13.1615 158.805 13.4661 158.492 13.7578C158.18 14.0495 157.812 14.3464 157.391 14.6484C156.865 15.0234 156.43 15.3438 156.086 15.6094C155.747 15.875 155.477 16.125 155.273 16.3594C155.076 16.5885 154.935 16.8203 154.852 17.0547C154.773 17.2839 154.734 17.5495 154.734 17.8516H160.312V19H153.398V18.4453C153.398 17.9661 153.451 17.5443 153.555 17.1797C153.659 16.8151 153.831 16.4688 154.07 16.1406C154.31 15.8125 154.622 15.4844 155.008 15.1562C155.398 14.8281 155.875 14.4583 156.438 14.0469C156.844 13.7552 157.182 13.4766 157.453 13.2109C157.729 12.9453 157.951 12.6797 158.117 12.4141C158.284 12.1484 158.401 11.8802 158.469 11.6094C158.542 11.3333 158.578 11.0417 158.578 10.7344ZM168.617 15.8281C168.617 16.3333 168.521 16.7943 168.328 17.2109C168.141 17.6224 167.872 17.9766 167.523 18.2734C167.18 18.5651 166.766 18.7917 166.281 18.9531C165.797 19.1146 165.263 19.1953 164.68 19.1953C163.612 19.1953 162.763 18.9922 162.133 18.5859V17.2109C162.888 17.8047 163.753 18.1016 164.727 18.1016C165.117 18.1016 165.469 18.0521 165.781 17.9531C166.099 17.8542 166.37 17.7109 166.594 17.5234C166.823 17.3359 166.997 17.1094 167.117 16.8438C167.242 16.5781 167.305 16.2786 167.305 15.9453C167.305 14.4818 166.263 13.75 164.18 13.75H163.25V12.6641H164.133C165.977 12.6641 166.898 11.9766 166.898 10.6016C166.898 9.33073 166.195 8.69531 164.789 8.69531C163.997 8.69531 163.255 8.96094 162.562 9.49219V8.25C163.276 7.82292 164.125 7.60938 165.109 7.60938C165.578 7.60938 166.003 7.67448 166.383 7.80469C166.763 7.9349 167.089 8.11719 167.359 8.35156C167.63 8.58594 167.839 8.86719 167.984 9.19531C168.135 9.52344 168.211 9.88542 168.211 10.2812C168.211 11.7552 167.466 12.7031 165.977 13.125V13.1562C166.357 13.1979 166.708 13.2917 167.031 13.4375C167.354 13.5781 167.633 13.763 167.867 13.9922C168.102 14.2214 168.284 14.4922 168.414 14.8047C168.549 15.112 168.617 15.4531 168.617 15.8281ZM176.438 7.79688V15.1953H177.875V16.3672H176.438V19H175.172V16.3672H169.906V15.2578C170.396 14.7057 170.891 14.1172 171.391 13.4922C171.891 12.862 172.367 12.224 172.82 11.5781C173.279 10.9323 173.701 10.2891 174.086 9.64844C174.477 9.0026 174.805 8.38542 175.07 7.79688H176.438ZM171.352 15.1953H175.172V9.71094C174.781 10.3932 174.411 11.0026 174.062 11.5391C173.714 12.0755 173.38 12.5625 173.062 13C172.75 13.4375 172.451 13.8333 172.164 14.1875C171.878 14.5417 171.607 14.8776 171.352 15.1953Z" fill="black"/>
<path d="M198.969 13.3516C198.969 14.2891 198.883 15.1198 198.711 15.8438C198.544 16.5677 198.299 17.1797 197.977 17.6797C197.659 18.1745 197.266 18.5521 196.797 18.8125C196.333 19.0677 195.805 19.1953 195.211 19.1953C194.648 19.1953 194.146 19.0729 193.703 18.8281C193.266 18.5781 192.896 18.2161 192.594 17.7422C192.292 17.2682 192.062 16.6875 191.906 16C191.75 15.3073 191.672 14.5156 191.672 13.625C191.672 12.6458 191.753 11.7812 191.914 11.0312C192.081 10.2812 192.323 9.65365 192.641 9.14844C192.958 8.63802 193.352 8.25521 193.82 8C194.294 7.73958 194.836 7.60938 195.445 7.60938C197.794 7.60938 198.969 9.52344 198.969 13.3516ZM197.656 13.4766C197.656 10.2891 196.898 8.69531 195.383 8.69531C193.784 8.69531 192.984 10.3177 192.984 13.5625C192.984 16.5885 193.768 18.1016 195.336 18.1016C196.883 18.1016 197.656 16.5599 197.656 13.4766ZM205.281 19H204V9.32031C203.901 9.41927 203.755 9.53385 203.562 9.66406C203.375 9.78906 203.161 9.91406 202.922 10.0391C202.688 10.1641 202.438 10.2812 202.172 10.3906C201.911 10.5 201.656 10.5859 201.406 10.6484V9.35156C201.688 9.27344 201.984 9.16927 202.297 9.03906C202.615 8.90365 202.924 8.75521 203.227 8.59375C203.534 8.42708 203.823 8.25521 204.094 8.07812C204.365 7.89583 204.599 7.71875 204.797 7.54688H205.281V19ZM214.602 7.79688L209.227 20.8594H208.031L213.391 7.79688H214.602ZM221.93 15.8281C221.93 16.3333 221.833 16.7943 221.641 17.2109C221.453 17.6224 221.185 17.9766 220.836 18.2734C220.492 18.5651 220.078 18.7917 219.594 18.9531C219.109 19.1146 218.576 19.1953 217.992 19.1953C216.924 19.1953 216.076 18.9922 215.445 18.5859V17.2109C216.201 17.8047 217.065 18.1016 218.039 18.1016C218.43 18.1016 218.781 18.0521 219.094 17.9531C219.411 17.8542 219.682 17.7109 219.906 17.5234C220.135 17.3359 220.31 17.1094 220.43 16.8438C220.555 16.5781 220.617 16.2786 220.617 15.9453C220.617 14.4818 219.576 13.75 217.492 13.75H216.562V12.6641H217.445C219.289 12.6641 220.211 11.9766 220.211 10.6016C220.211 9.33073 219.508 8.69531 218.102 8.69531C217.31 8.69531 216.568 8.96094 215.875 9.49219V8.25C216.589 7.82292 217.438 7.60938 218.422 7.60938C218.891 7.60938 219.315 7.67448 219.695 7.80469C220.076 7.9349 220.401 8.11719 220.672 8.35156C220.943 8.58594 221.151 8.86719 221.297 9.19531C221.448 9.52344 221.523 9.88542 221.523 10.2812C221.523 11.7552 220.779 12.7031 219.289 13.125V13.1562C219.669 13.1979 220.021 13.2917 220.344 13.4375C220.667 13.5781 220.945 13.763 221.18 13.9922C221.414 14.2214 221.596 14.4922 221.727 14.8047C221.862 15.112 221.93 15.4531 221.93 15.8281ZM231.078 13.3516C231.078 14.2891 230.992 15.1198 230.82 15.8438C230.654 16.5677 230.409 17.1797 230.086 17.6797C229.768 18.1745 229.375 18.5521 228.906 18.8125C228.443 19.0677 227.914 19.1953 227.32 19.1953C226.758 19.1953 226.255 19.0729 225.812 18.8281C225.375 18.5781 225.005 18.2161 224.703 17.7422C224.401 17.2682 224.172 16.6875 224.016 16C223.859 15.3073 223.781 14.5156 223.781 13.625C223.781 12.6458 223.862 11.7812 224.023 11.0312C224.19 10.2812 224.432 9.65365 224.75 9.14844C225.068 8.63802 225.461 8.25521 225.93 8C226.404 7.73958 226.945 7.60938 227.555 7.60938C229.904 7.60938 231.078 9.52344 231.078 13.3516ZM229.766 13.4766C229.766 10.2891 229.008 8.69531 227.492 8.69531C225.893 8.69531 225.094 10.3177 225.094 13.5625C225.094 16.5885 225.878 18.1016 227.445 18.1016C228.992 18.1016 229.766 16.5599 229.766 13.4766Z" fill="black"/>
<defs>
<linearGradient id="paint0_linear_7_2280" x1="21.859" y1="9.62293" x2="30.4266" y2="9.62293" gradientUnits="userSpaceOnUse">
<stop stop-color="#00A3E1"/>
<stop offset="0.3042" stop-color="#009ADD"/>
<stop offset="0.7987" stop-color="#0082D4"/>
<stop offset="1" stop-color="#0076CF"/>
</linearGradient>
</defs>
</svg>
