<svg width="328" height="24" viewBox="0 0 328 24" fill="none" xmlns="http://www.w3.org/2000/svg">
<rect width="32" height="24" rx="4" fill="#F6F6FA"/>
<path fill-rule="evenodd" clip-rule="evenodd" d="M18.8883 17.5017H12.7637V6.49487H18.8884L18.8883 17.5017Z" fill="#6C6BBD"/>
<path fill-rule="evenodd" clip-rule="evenodd" d="M13.1515 12.0001C13.1515 9.76738 14.1969 7.77845 15.8248 6.49668C14.5928 5.52523 13.0681 4.99766 11.4992 5.00001C7.63356 5.00001 4.5 8.13401 4.5 12.0001C4.5 15.8662 7.63356 19.0002 11.4992 19.0002C13.0681 19.0025 14.5929 18.4749 15.8249 17.5035C14.1971 16.2219 13.1515 14.2329 13.1515 12.0001Z" fill="#EB001B"/>
<path fill-rule="evenodd" clip-rule="evenodd" d="M27.1497 12.0001C27.1497 15.8662 24.0161 19.0002 20.1505 19.0002C18.5814 19.0024 17.0565 18.4749 15.8242 17.5035C17.4526 16.2217 18.498 14.2329 18.498 12.0001C18.498 9.76723 17.4526 7.77845 15.8242 6.49668C17.0564 5.52523 18.5813 4.99773 20.1504 5.00001C24.016 5.00001 27.1496 8.13401 27.1496 12.0001" fill="#0099DF"/>
<path d="M41.6562 19H40.375V9.32031C40.276 9.41927 40.1302 9.53385 39.9375 9.66406C39.75 9.78906 39.5365 9.91406 39.2969 10.0391C39.0625 10.1641 38.8125 10.2812 38.5469 10.3906C38.2865 10.5 38.0312 10.5859 37.7812 10.6484V9.35156C38.0625 9.27344 38.3594 9.16927 38.6719 9.03906C38.9896 8.90365 39.2995 8.75521 39.6016 8.59375C39.9089 8.42708 40.1979 8.25521 40.4688 8.07812C40.7396 7.89583 40.974 7.71875 41.1719 7.54688H41.6562V19ZM50.6562 10.7344C50.6562 10.3906 50.6016 10.0911 50.4922 9.83594C50.388 9.58073 50.2422 9.36979 50.0547 9.20312C49.8724 9.03125 49.6562 8.90365 49.4062 8.82031C49.1562 8.73698 48.8854 8.69531 48.5938 8.69531C48.3438 8.69531 48.099 8.72917 47.8594 8.79688C47.6198 8.86458 47.3854 8.95833 47.1562 9.07812C46.9323 9.19792 46.7135 9.34115 46.5 9.50781C46.2917 9.67448 46.0964 9.85938 45.9141 10.0625V8.6875C46.2734 8.33854 46.6745 8.07292 47.1172 7.89062C47.5651 7.70312 48.1094 7.60938 48.75 7.60938C49.2083 7.60938 49.6328 7.67708 50.0234 7.8125C50.4141 7.94271 50.7526 8.13542 51.0391 8.39062C51.3255 8.64583 51.5495 8.96094 51.7109 9.33594C51.8776 9.71094 51.9609 10.1406 51.9609 10.625C51.9609 11.0677 51.9089 11.4688 51.8047 11.8281C51.7057 12.1875 51.5521 12.526 51.3438 12.8438C51.1406 13.1615 50.8828 13.4661 50.5703 13.7578C50.2578 14.0495 49.8906 14.3464 49.4688 14.6484C48.9427 15.0234 48.5078 15.3438 48.1641 15.6094C47.8255 15.875 47.5547 16.125 47.3516 16.3594C47.1536 16.5885 47.013 16.8203 46.9297 17.0547C46.8516 17.2839 46.8125 17.5495 46.8125 17.8516H52.3906V19H45.4766V18.4453C45.4766 17.9661 45.5286 17.5443 45.6328 17.1797C45.737 16.8151 45.9089 16.4688 46.1484 16.1406C46.388 15.8125 46.7005 15.4844 47.0859 15.1562C47.4766 14.8281 47.9531 14.4583 48.5156 14.0469C48.9219 13.7552 49.2604 13.4766 49.5312 13.2109C49.8073 12.9453 50.0286 12.6797 50.1953 12.4141C50.362 12.1484 50.4792 11.8802 50.5469 11.6094C50.6198 11.3333 50.6562 11.0417 50.6562 10.7344ZM60.6953 15.8281C60.6953 16.3333 60.599 16.7943 60.4062 17.2109C60.2188 17.6224 59.9505 17.9766 59.6016 18.2734C59.2578 18.5651 58.8438 18.7917 58.3594 18.9531C57.875 19.1146 57.3411 19.1953 56.7578 19.1953C55.6901 19.1953 54.8411 18.9922 54.2109 18.5859V17.2109C54.9661 17.8047 55.8307 18.1016 56.8047 18.1016C57.1953 18.1016 57.5469 18.0521 57.8594 17.9531C58.1771 17.8542 58.4479 17.7109 58.6719 17.5234C58.901 17.3359 59.0755 17.1094 59.1953 16.8438C59.3203 16.5781 59.3828 16.2786 59.3828 15.9453C59.3828 14.4818 58.3411 13.75 56.2578 13.75H55.3281V12.6641H56.2109C58.0547 12.6641 58.9766 11.9766 58.9766 10.6016C58.9766 9.33073 58.2734 8.69531 56.8672 8.69531C56.0755 8.69531 55.3333 8.96094 54.6406 9.49219V8.25C55.3542 7.82292 56.2031 7.60938 57.1875 7.60938C57.6562 7.60938 58.0807 7.67448 58.4609 7.80469C58.8411 7.9349 59.1667 8.11719 59.4375 8.35156C59.7083 8.58594 59.9167 8.86719 60.0625 9.19531C60.2135 9.52344 60.2891 9.88542 60.2891 10.2812C60.2891 11.7552 59.5443 12.7031 58.0547 13.125V13.1562C58.4349 13.1979 58.7865 13.2917 59.1094 13.4375C59.4323 13.5781 59.7109 13.763 59.9453 13.9922C60.1797 14.2214 60.362 14.4922 60.4922 14.8047C60.6276 15.112 60.6953 15.4531 60.6953 15.8281ZM68.5156 7.79688V15.1953H69.9531V16.3672H68.5156V19H67.25V16.3672H61.9844V15.2578C62.474 14.7057 62.9688 14.1172 63.4688 13.4922C63.9688 12.862 64.4453 12.224 64.8984 11.5781C65.3568 10.9323 65.7786 10.2891 66.1641 9.64844C66.5547 9.0026 66.8828 8.38542 67.1484 7.79688H68.5156ZM63.4297 15.1953H67.25V9.71094C66.8594 10.3932 66.4896 11.0026 66.1406 11.5391C65.7917 12.0755 65.4583 12.5625 65.1406 13C64.8281 13.4375 64.5286 13.8333 64.2422 14.1875C63.9557 14.5417 63.6849 14.8776 63.4297 15.1953ZM82.4609 15.5781C82.4609 16.125 82.3672 16.6198 82.1797 17.0625C81.9922 17.5052 81.724 17.8854 81.375 18.2031C81.0312 18.5208 80.6146 18.7656 80.125 18.9375C79.6354 19.1094 79.0911 19.1953 78.4922 19.1953C77.4505 19.1953 76.6771 19.0391 76.1719 18.7266V17.3672C76.9323 17.8568 77.7109 18.1016 78.5078 18.1016C78.9141 18.1016 79.2786 18.0417 79.6016 17.9219C79.9297 17.8021 80.2083 17.6354 80.4375 17.4219C80.6667 17.2083 80.8411 16.9505 80.9609 16.6484C81.0859 16.3464 81.1484 16.0156 81.1484 15.6562C81.1484 14.9271 80.9036 14.3568 80.4141 13.9453C79.9245 13.5286 79.2135 13.3203 78.2812 13.3203C78.1302 13.3203 77.9714 13.3229 77.8047 13.3281C77.638 13.3333 77.4714 13.3411 77.3047 13.3516C77.138 13.3568 76.974 13.3646 76.8125 13.375C76.6562 13.3854 76.513 13.3984 76.3828 13.4141L76.7656 7.79688H81.9453V8.95312H77.875L77.6484 12.2422C77.8151 12.2318 77.9922 12.224 78.1797 12.2188C78.3672 12.2083 78.5339 12.2031 78.6797 12.2031C79.2734 12.2031 79.8047 12.2812 80.2734 12.4375C80.7422 12.5938 81.138 12.8177 81.4609 13.1094C81.7891 13.3958 82.0365 13.75 82.2031 14.1719C82.375 14.5885 82.4609 15.0573 82.4609 15.5781ZM91.5 15.4453C91.5 15.9922 91.4115 16.4948 91.2344 16.9531C91.0573 17.4115 90.8125 17.8073 90.5 18.1406C90.1875 18.474 89.8151 18.7344 89.3828 18.9219C88.9505 19.1042 88.4818 19.1953 87.9766 19.1953C87.4141 19.1953 86.9089 19.0781 86.4609 18.8438C86.0182 18.6094 85.6406 18.2734 85.3281 17.8359C85.0208 17.3932 84.7865 16.8542 84.625 16.2188C84.4635 15.5833 84.3828 14.8672 84.3828 14.0703C84.3828 13.0964 84.4896 12.2135 84.7031 11.4219C84.9219 10.625 85.2292 9.94531 85.625 9.38281C86.026 8.8151 86.5078 8.3776 87.0703 8.07031C87.6328 7.76302 88.2604 7.60938 88.9531 7.60938C89.724 7.60938 90.3438 7.71615 90.8125 7.92969V9.14062C90.2344 8.84375 89.625 8.69531 88.9844 8.69531C88.4844 8.69531 88.0339 8.80729 87.6328 9.03125C87.2318 9.25521 86.888 9.57292 86.6016 9.98438C86.3151 10.3906 86.0938 10.8828 85.9375 11.4609C85.7865 12.0391 85.7109 12.6823 85.7109 13.3906H85.7422C86.2578 12.4583 87.1094 11.9922 88.2969 11.9922C88.7865 11.9922 89.2266 12.0755 89.6172 12.2422C90.013 12.4089 90.349 12.6458 90.625 12.9531C90.9062 13.2552 91.1224 13.6172 91.2734 14.0391C91.4245 14.4609 91.5 14.9297 91.5 15.4453ZM90.1875 15.6094C90.1875 15.2188 90.138 14.8672 90.0391 14.5547C89.9401 14.2422 89.7969 13.9766 89.6094 13.7578C89.4271 13.5391 89.2005 13.3724 88.9297 13.2578C88.6589 13.138 88.3516 13.0781 88.0078 13.0781C87.6901 13.0781 87.3958 13.138 87.125 13.2578C86.8542 13.3776 86.6198 13.5417 86.4219 13.75C86.224 13.9531 86.0677 14.1927 85.9531 14.4688C85.8438 14.7396 85.7891 15.0286 85.7891 15.3359C85.7891 15.7214 85.8438 16.0833 85.9531 16.4219C86.0625 16.7552 86.2161 17.0469 86.4141 17.2969C86.612 17.5469 86.8464 17.7448 87.1172 17.8906C87.3932 18.0312 87.6979 18.1016 88.0312 18.1016C88.3542 18.1016 88.6484 18.0417 88.9141 17.9219C89.1797 17.7969 89.4062 17.625 89.5938 17.4062C89.7812 17.1875 89.9271 16.9271 90.0312 16.625C90.1354 16.3177 90.1875 15.9792 90.1875 15.6094ZM95.4062 15.8125C94.8646 15.8125 94.3984 15.6224 94.0078 15.2422C93.6172 14.862 93.4219 14.401 93.4219 13.8594C93.4219 13.3229 93.6172 12.8594 94.0078 12.4688C94.3984 12.0729 94.8646 11.875 95.4062 11.875C95.9479 11.875 96.4089 12.0703 96.7891 12.4609C97.1693 12.8516 97.3594 13.3177 97.3594 13.8594C97.3594 14.401 97.1693 14.862 96.7891 15.2422C96.4089 15.6224 95.9479 15.8125 95.4062 15.8125ZM101.906 15.8125C101.365 15.8125 100.898 15.6224 100.508 15.2422C100.117 14.862 99.9219 14.401 99.9219 13.8594C99.9219 13.3229 100.117 12.8594 100.508 12.4688C100.898 12.0729 101.365 11.875 101.906 11.875C102.448 11.875 102.909 12.0703 103.289 12.4609C103.669 12.8516 103.859 13.3177 103.859 13.8594C103.859 14.401 103.669 14.862 103.289 15.2422C102.909 15.6224 102.448 15.8125 101.906 15.8125ZM112.797 15.8125C112.255 15.8125 111.789 15.6224 111.398 15.2422C111.008 14.862 110.812 14.401 110.812 13.8594C110.812 13.3229 111.008 12.8594 111.398 12.4688C111.789 12.0729 112.255 11.875 112.797 11.875C113.339 11.875 113.799 12.0703 114.18 12.4609C114.56 12.8516 114.75 13.3177 114.75 13.8594C114.75 14.401 114.56 14.862 114.18 15.2422C113.799 15.6224 113.339 15.8125 112.797 15.8125ZM119.297 15.8125C118.755 15.8125 118.289 15.6224 117.898 15.2422C117.508 14.862 117.312 14.401 117.312 13.8594C117.312 13.3229 117.508 12.8594 117.898 12.4688C118.289 12.0729 118.755 11.875 119.297 11.875C119.839 11.875 120.299 12.0703 120.68 12.4609C121.06 12.8516 121.25 13.3177 121.25 13.8594C121.25 14.401 121.06 14.862 120.68 15.2422C120.299 15.6224 119.839 15.8125 119.297 15.8125ZM125.797 15.8125C125.255 15.8125 124.789 15.6224 124.398 15.2422C124.008 14.862 123.812 14.401 123.812 13.8594C123.812 13.3229 124.008 12.8594 124.398 12.4688C124.789 12.0729 125.255 11.875 125.797 11.875C126.339 11.875 126.799 12.0703 127.18 12.4609C127.56 12.8516 127.75 13.3177 127.75 13.8594C127.75 14.401 127.56 14.862 127.18 15.2422C126.799 15.6224 126.339 15.8125 125.797 15.8125ZM132.297 15.8125C131.755 15.8125 131.289 15.6224 130.898 15.2422C130.508 14.862 130.312 14.401 130.312 13.8594C130.312 13.3229 130.508 12.8594 130.898 12.4688C131.289 12.0729 131.755 11.875 132.297 11.875C132.839 11.875 133.299 12.0703 133.68 12.4609C134.06 12.8516 134.25 13.3177 134.25 13.8594C134.25 14.401 134.06 14.862 133.68 15.2422C133.299 15.6224 132.839 15.8125 132.297 15.8125ZM145.578 19H144.297V9.32031C144.198 9.41927 144.052 9.53385 143.859 9.66406C143.672 9.78906 143.458 9.91406 143.219 10.0391C142.984 10.1641 142.734 10.2812 142.469 10.3906C142.208 10.5 141.953 10.5859 141.703 10.6484V9.35156C141.984 9.27344 142.281 9.16927 142.594 9.03906C142.911 8.90365 143.221 8.75521 143.523 8.59375C143.831 8.42708 144.12 8.25521 144.391 8.07812C144.661 7.89583 144.896 7.71875 145.094 7.54688H145.578V19ZM154.578 10.7344C154.578 10.3906 154.523 10.0911 154.414 9.83594C154.31 9.58073 154.164 9.36979 153.977 9.20312C153.794 9.03125 153.578 8.90365 153.328 8.82031C153.078 8.73698 152.807 8.69531 152.516 8.69531C152.266 8.69531 152.021 8.72917 151.781 8.79688C151.542 8.86458 151.307 8.95833 151.078 9.07812C150.854 9.19792 150.635 9.34115 150.422 9.50781C150.214 9.67448 150.018 9.85938 149.836 10.0625V8.6875C150.195 8.33854 150.596 8.07292 151.039 7.89062C151.487 7.70312 152.031 7.60938 152.672 7.60938C153.13 7.60938 153.555 7.67708 153.945 7.8125C154.336 7.94271 154.674 8.13542 154.961 8.39062C155.247 8.64583 155.471 8.96094 155.633 9.33594C155.799 9.71094 155.883 10.1406 155.883 10.625C155.883 11.0677 155.831 11.4688 155.727 11.8281C155.628 12.1875 155.474 12.526 155.266 12.8438C155.062 13.1615 154.805 13.4661 154.492 13.7578C154.18 14.0495 153.812 14.3464 153.391 14.6484C152.865 15.0234 152.43 15.3438 152.086 15.6094C151.747 15.875 151.477 16.125 151.273 16.3594C151.076 16.5885 150.935 16.8203 150.852 17.0547C150.773 17.2839 150.734 17.5495 150.734 17.8516H156.312V19H149.398V18.4453C149.398 17.9661 149.451 17.5443 149.555 17.1797C149.659 16.8151 149.831 16.4688 150.07 16.1406C150.31 15.8125 150.622 15.4844 151.008 15.1562C151.398 14.8281 151.875 14.4583 152.438 14.0469C152.844 13.7552 153.182 13.4766 153.453 13.2109C153.729 12.9453 153.951 12.6797 154.117 12.4141C154.284 12.1484 154.401 11.8802 154.469 11.6094C154.542 11.3333 154.578 11.0417 154.578 10.7344ZM164.617 15.8281C164.617 16.3333 164.521 16.7943 164.328 17.2109C164.141 17.6224 163.872 17.9766 163.523 18.2734C163.18 18.5651 162.766 18.7917 162.281 18.9531C161.797 19.1146 161.263 19.1953 160.68 19.1953C159.612 19.1953 158.763 18.9922 158.133 18.5859V17.2109C158.888 17.8047 159.753 18.1016 160.727 18.1016C161.117 18.1016 161.469 18.0521 161.781 17.9531C162.099 17.8542 162.37 17.7109 162.594 17.5234C162.823 17.3359 162.997 17.1094 163.117 16.8438C163.242 16.5781 163.305 16.2786 163.305 15.9453C163.305 14.4818 162.263 13.75 160.18 13.75H159.25V12.6641H160.133C161.977 12.6641 162.898 11.9766 162.898 10.6016C162.898 9.33073 162.195 8.69531 160.789 8.69531C159.997 8.69531 159.255 8.96094 158.562 9.49219V8.25C159.276 7.82292 160.125 7.60938 161.109 7.60938C161.578 7.60938 162.003 7.67448 162.383 7.80469C162.763 7.9349 163.089 8.11719 163.359 8.35156C163.63 8.58594 163.839 8.86719 163.984 9.19531C164.135 9.52344 164.211 9.88542 164.211 10.2812C164.211 11.7552 163.466 12.7031 161.977 13.125V13.1562C162.357 13.1979 162.708 13.2917 163.031 13.4375C163.354 13.5781 163.633 13.763 163.867 13.9922C164.102 14.2214 164.284 14.4922 164.414 14.8047C164.549 15.112 164.617 15.4531 164.617 15.8281ZM172.438 7.79688V15.1953H173.875V16.3672H172.438V19H171.172V16.3672H165.906V15.2578C166.396 14.7057 166.891 14.1172 167.391 13.4922C167.891 12.862 168.367 12.224 168.82 11.5781C169.279 10.9323 169.701 10.2891 170.086 9.64844C170.477 9.0026 170.805 8.38542 171.07 7.79688H172.438ZM167.352 15.1953H171.172V9.71094C170.781 10.3932 170.411 11.0026 170.062 11.5391C169.714 12.0755 169.38 12.5625 169.062 13C168.75 13.4375 168.451 13.8333 168.164 14.1875C167.878 14.5417 167.607 14.8776 167.352 15.1953Z" fill="black"/>
</svg>
