<svg width="22" height="22" viewBox="0 0 22 22" fill="none" xmlns="http://www.w3.org/2000/svg">
<rect width="22" height="22" fill="#E3E3E3"/>
<g id="&#208;&#154;&#208;&#190;&#209;&#128;&#208;&#183;&#208;&#184;&#208;&#189;&#208;&#176;-002">
<rect width="1400" height="2045" transform="translate(-48 -1501)" fill="#F6F6FA"/>
<g id="Frame 277132152">
<g id="Frame 277132152_2">
<g id="Frame 277132230">
<g id="&#208;&#158;&#209;&#132;&#208;&#190;&#209;&#128;&#208;&#188;&#208;&#187;&#208;&#181;&#208;&#189;&#208;&#184;&#208;&#181;">
<g id="&#208;&#148;&#208;&#190;&#209;&#129;&#209;&#130;&#208;&#176;&#208;&#178;&#208;&#186;&#208;&#176;">
<rect x="-24" y="-316" width="891" height="362" rx="16" fill="white"/>
<g id="&#208;&#158;&#208;&#177;&#209;&#128;&#208;&#176;&#209;&#130;&#208;&#189;&#208;&#176;&#209;&#143; &#208;&#180;&#208;&#190;&#209;&#129;&#209;&#130;&#208;&#176;&#208;&#178;&#208;&#186;&#208;&#176;">
<g id="Frame 277132152_3">
<g id="price shipping">
<path id="icon" fill-rule="evenodd" clip-rule="evenodd" d="M1 10.9998C1 16.5226 5.47715 20.9998 11 20.9998C16.5228 20.9998 21 16.5226 21 10.9998C21 5.47691 16.5228 0.999756 11 0.999756C5.47715 0.999756 1 5.47691 1 10.9998ZM19.1818 10.9997C19.1818 15.5184 15.5187 19.1816 11 19.1816C6.48128 19.1816 2.81815 15.5184 2.81815 10.9997C2.81815 6.48103 6.48128 2.81791 11 2.81791C15.5187 2.81791 19.1818 6.48103 19.1818 10.9997Z" fill="url(#paint0_linear_0_1)"/>
<path id="Rectangle 2703 (Stroke)" fill-rule="evenodd" clip-rule="evenodd" d="M6.98273 9.6548C7.40206 9.29538 8.03336 9.34394 8.39278 9.76327L10.6286 12.3717L14.6826 7.58061C15.0394 7.15901 15.6704 7.10643 16.092 7.46317C16.5136 7.81991 16.5662 8.45089 16.2094 8.8725L11.7761 14.1118C11.1795 14.817 10.0933 14.8204 9.49219 14.1191L6.87427 11.0648C6.51485 10.6455 6.56341 10.0142 6.98273 9.6548Z" fill="url(#paint1_linear_0_1)"/>
</g>
</g>
</g>
</g>
</g>
</g>
</g>
</g>
</g>
<defs>
<linearGradient id="paint0_linear_0_1" x1="4" y1="1.99994" x2="11" y2="20.9998" gradientUnits="userSpaceOnUse">
<stop stop-color="#0CD38B"/>
<stop offset="1" stop-color="#0CB477"/>
</linearGradient>
<linearGradient id="paint1_linear_0_1" x1="9" y1="7.5" x2="10.5089" y2="15.8594" gradientUnits="userSpaceOnUse">
<stop stop-color="#0CD38B"/>
<stop offset="1" stop-color="#0CB477"/>
</linearGradient>
</defs>
</svg>
