<svg width="288" height="25" viewBox="0 0 288 25" fill="none" xmlns="http://www.w3.org/2000/svg">
<rect y="0.333252" width="32" height="24" rx="4" fill="#F6F6FA"/>
<path d="M17.6813 9.17708L15.8645 13.0916H15.6806V8.33362H13.0852V16.3357H15.2372C15.8212 16.3357 16.3403 16.0005 16.589 15.4814L18.4166 11.5777H18.6005V16.3357H21.1959V8.33362H19.0114C18.4491 8.33362 17.9192 8.66884 17.6813 9.17708Z" fill="#319B42"/>
<path d="M7.97243 9.38254L6.90182 13.0916H6.71798L5.63656 9.38254C5.45271 8.75535 4.87956 8.33362 4.2307 8.33362H1.66772V16.3357H4.26315V11.5777H4.44699L5.93935 16.3357H7.66963L9.162 11.5777H9.34584V16.3357H11.9413V8.33362H9.37829C8.72943 8.33362 8.14546 8.75535 7.97243 9.38254Z" fill="#319B42"/>
<path d="M22.3244 11.9007V16.3357H24.9207V13.7396H27.7116C28.9232 13.7396 29.9509 12.9716 30.3295 11.9007H22.3244Z" fill="#319B42"/>
<path d="M27.6358 8.33362H21.8591C22.2161 10.2374 23.882 11.5787 25.8833 11.5787H30.3727C30.4051 11.4057 30.4267 11.211 30.4267 11.0163C30.4267 9.46941 29.1827 8.33362 27.6358 8.33362Z" fill="url(#paint0_linear_7_4131)"/>
<path d="M45.6562 19.3333H44.375V9.65356C44.276 9.75252 44.1302 9.86711 43.9375 9.99731C43.75 10.1223 43.5365 10.2473 43.2969 10.3723C43.0625 10.4973 42.8125 10.6145 42.5469 10.7239C42.2865 10.8333 42.0312 10.9192 41.7812 10.9817V9.68481C42.0625 9.60669 42.3594 9.50252 42.6719 9.37231C42.9896 9.2369 43.2995 9.08846 43.6016 8.927C43.9089 8.76034 44.1979 8.58846 44.4688 8.41138C44.7396 8.22909 44.974 8.052 45.1719 7.88013H45.6562V19.3333ZM54.6562 11.0676C54.6562 10.7239 54.6016 10.4244 54.4922 10.1692C54.388 9.91398 54.2422 9.70304 54.0547 9.53638C53.8724 9.3645 53.6562 9.2369 53.4062 9.15356C53.1562 9.07023 52.8854 9.02856 52.5938 9.02856C52.3438 9.02856 52.099 9.06242 51.8594 9.13013C51.6198 9.19784 51.3854 9.29159 51.1562 9.41138C50.9323 9.53117 50.7135 9.6744 50.5 9.84106C50.2917 10.0077 50.0964 10.1926 49.9141 10.3958V9.02075C50.2734 8.67179 50.6745 8.40617 51.1172 8.22388C51.5651 8.03638 52.1094 7.94263 52.75 7.94263C53.2083 7.94263 53.6328 8.01034 54.0234 8.14575C54.4141 8.27596 54.7526 8.46867 55.0391 8.72388C55.3255 8.97909 55.5495 9.29419 55.7109 9.66919C55.8776 10.0442 55.9609 10.4739 55.9609 10.9583C55.9609 11.401 55.9089 11.802 55.8047 12.1614C55.7057 12.5208 55.5521 12.8593 55.3438 13.177C55.1406 13.4947 54.8828 13.7994 54.5703 14.0911C54.2578 14.3827 53.8906 14.6796 53.4688 14.9817C52.9427 15.3567 52.5078 15.677 52.1641 15.9426C51.8255 16.2083 51.5547 16.4583 51.3516 16.6926C51.1536 16.9218 51.013 17.1536 50.9297 17.3879C50.8516 17.6171 50.8125 17.8827 50.8125 18.1848H56.3906V19.3333H49.4766V18.7786C49.4766 18.2994 49.5286 17.8775 49.6328 17.5129C49.737 17.1484 49.9089 16.802 50.1484 16.4739C50.388 16.1458 50.7005 15.8176 51.0859 15.4895C51.4766 15.1614 51.9531 14.7916 52.5156 14.3801C52.9219 14.0885 53.2604 13.8098 53.5312 13.5442C53.8073 13.2786 54.0286 13.0129 54.1953 12.7473C54.362 12.4817 54.4792 12.2135 54.5469 11.9426C54.6198 11.6666 54.6562 11.3749 54.6562 11.0676ZM64.6953 16.1614C64.6953 16.6666 64.599 17.1275 64.4062 17.5442C64.2188 17.9556 63.9505 18.3098 63.6016 18.6067C63.2578 18.8984 62.8438 19.1249 62.3594 19.2864C61.875 19.4478 61.3411 19.5286 60.7578 19.5286C59.6901 19.5286 58.8411 19.3254 58.2109 18.9192V17.5442C58.9661 18.1379 59.8307 18.4348 60.8047 18.4348C61.1953 18.4348 61.5469 18.3853 61.8594 18.2864C62.1771 18.1874 62.4479 18.0442 62.6719 17.8567C62.901 17.6692 63.0755 17.4426 63.1953 17.177C63.3203 16.9114 63.3828 16.6119 63.3828 16.2786C63.3828 14.815 62.3411 14.0833 60.2578 14.0833H59.3281V12.9973H60.2109C62.0547 12.9973 62.9766 12.3098 62.9766 10.9348C62.9766 9.66398 62.2734 9.02856 60.8672 9.02856C60.0755 9.02856 59.3333 9.29419 58.6406 9.82544V8.58325C59.3542 8.15617 60.2031 7.94263 61.1875 7.94263C61.6562 7.94263 62.0807 8.00773 62.4609 8.13794C62.8411 8.26815 63.1667 8.45044 63.4375 8.68481C63.7083 8.91919 63.9167 9.20044 64.0625 9.52856C64.2135 9.85669 64.2891 10.2187 64.2891 10.6145C64.2891 12.0885 63.5443 13.0364 62.0547 13.4583V13.4895C62.4349 13.5312 62.7865 13.6249 63.1094 13.7708C63.4323 13.9114 63.7109 14.0963 63.9453 14.3254C64.1797 14.5546 64.362 14.8254 64.4922 15.1379C64.6276 15.4452 64.6953 15.7864 64.6953 16.1614ZM72.5156 8.13013V15.5286H73.9531V16.7004H72.5156V19.3333H71.25V16.7004H65.9844V15.5911C66.474 15.039 66.9688 14.4504 67.4688 13.8254C67.9688 13.1952 68.4453 12.5572 68.8984 11.9114C69.3568 11.2655 69.7786 10.6223 70.1641 9.98169C70.5547 9.33586 70.8828 8.71867 71.1484 8.13013H72.5156ZM67.4297 15.5286H71.25V10.0442C70.8594 10.7265 70.4896 11.3359 70.1406 11.8723C69.7917 12.4088 69.4583 12.8958 69.1406 13.3333C68.8281 13.7708 68.5286 14.1666 68.2422 14.5208C67.9557 14.8749 67.6849 15.2109 67.4297 15.5286ZM86.4609 15.9114C86.4609 16.4583 86.3672 16.953 86.1797 17.3958C85.9922 17.8385 85.724 18.2187 85.375 18.5364C85.0312 18.8541 84.6146 19.0989 84.125 19.2708C83.6354 19.4426 83.0911 19.5286 82.4922 19.5286C81.4505 19.5286 80.6771 19.3723 80.1719 19.0598V17.7004C80.9323 18.19 81.7109 18.4348 82.5078 18.4348C82.9141 18.4348 83.2786 18.3749 83.6016 18.2551C83.9297 18.1353 84.2083 17.9687 84.4375 17.7551C84.6667 17.5416 84.8411 17.2838 84.9609 16.9817C85.0859 16.6796 85.1484 16.3489 85.1484 15.9895C85.1484 15.2603 84.9036 14.69 84.4141 14.2786C83.9245 13.8619 83.2135 13.6536 82.2812 13.6536C82.1302 13.6536 81.9714 13.6562 81.8047 13.6614C81.638 13.6666 81.4714 13.6744 81.3047 13.6848C81.138 13.69 80.974 13.6978 80.8125 13.7083C80.6562 13.7187 80.513 13.7317 80.3828 13.7473L80.7656 8.13013H85.9453V9.28638H81.875L81.6484 12.5754C81.8151 12.565 81.9922 12.5572 82.1797 12.552C82.3672 12.5416 82.5339 12.5364 82.6797 12.5364C83.2734 12.5364 83.8047 12.6145 84.2734 12.7708C84.7422 12.927 85.138 13.151 85.4609 13.4426C85.7891 13.7291 86.0365 14.0833 86.2031 14.5051C86.375 14.9218 86.4609 15.3905 86.4609 15.9114ZM95.5 15.7786C95.5 16.3254 95.4115 16.828 95.2344 17.2864C95.0573 17.7447 94.8125 18.1405 94.5 18.4739C94.1875 18.8072 93.8151 19.0676 93.3828 19.2551C92.9505 19.4374 92.4818 19.5286 91.9766 19.5286C91.4141 19.5286 90.9089 19.4114 90.4609 19.177C90.0182 18.9426 89.6406 18.6067 89.3281 18.1692C89.0208 17.7265 88.7865 17.1874 88.625 16.552C88.4635 15.9166 88.3828 15.2004 88.3828 14.4036C88.3828 13.4296 88.4896 12.5468 88.7031 11.7551C88.9219 10.9583 89.2292 10.2786 89.625 9.71606C90.026 9.14836 90.5078 8.71086 91.0703 8.40356C91.6328 8.09627 92.2604 7.94263 92.9531 7.94263C93.724 7.94263 94.3438 8.0494 94.8125 8.26294V9.47388C94.2344 9.177 93.625 9.02856 92.9844 9.02856C92.4844 9.02856 92.0339 9.14054 91.6328 9.3645C91.2318 9.58846 90.888 9.90617 90.6016 10.3176C90.3151 10.7239 90.0938 11.2161 89.9375 11.7942C89.7865 12.3723 89.7109 13.0155 89.7109 13.7239H89.7422C90.2578 12.7916 91.1094 12.3254 92.2969 12.3254C92.7865 12.3254 93.2266 12.4088 93.6172 12.5754C94.013 12.7421 94.349 12.9791 94.625 13.2864C94.9062 13.5885 95.1224 13.9504 95.2734 14.3723C95.4245 14.7942 95.5 15.2629 95.5 15.7786ZM94.1875 15.9426C94.1875 15.552 94.138 15.2004 94.0391 14.8879C93.9401 14.5754 93.7969 14.3098 93.6094 14.0911C93.4271 13.8723 93.2005 13.7056 92.9297 13.5911C92.6589 13.4713 92.3516 13.4114 92.0078 13.4114C91.6901 13.4114 91.3958 13.4713 91.125 13.5911C90.8542 13.7109 90.6198 13.8749 90.4219 14.0833C90.224 14.2864 90.0677 14.526 89.9531 14.802C89.8438 15.0728 89.7891 15.3619 89.7891 15.6692C89.7891 16.0546 89.8438 16.4166 89.9531 16.7551C90.0625 17.0885 90.2161 17.3801 90.4141 17.6301C90.612 17.8801 90.8464 18.078 91.1172 18.2239C91.3932 18.3645 91.6979 18.4348 92.0312 18.4348C92.3542 18.4348 92.6484 18.3749 92.9141 18.2551C93.1797 18.1301 93.4062 17.9583 93.5938 17.7395C93.7812 17.5208 93.9271 17.2603 94.0312 16.9583C94.1354 16.651 94.1875 16.3124 94.1875 15.9426ZM99.4062 16.1458C98.8646 16.1458 98.3984 15.9556 98.0078 15.5754C97.6172 15.1952 97.4219 14.7343 97.4219 14.1926C97.4219 13.6562 97.6172 13.1926 98.0078 12.802C98.3984 12.4062 98.8646 12.2083 99.4062 12.2083C99.9479 12.2083 100.409 12.4036 100.789 12.7942C101.169 13.1848 101.359 13.651 101.359 14.1926C101.359 14.7343 101.169 15.1952 100.789 15.5754C100.409 15.9556 99.9479 16.1458 99.4062 16.1458ZM105.906 16.1458C105.365 16.1458 104.898 15.9556 104.508 15.5754C104.117 15.1952 103.922 14.7343 103.922 14.1926C103.922 13.6562 104.117 13.1926 104.508 12.802C104.898 12.4062 105.365 12.2083 105.906 12.2083C106.448 12.2083 106.909 12.4036 107.289 12.7942C107.669 13.1848 107.859 13.651 107.859 14.1926C107.859 14.7343 107.669 15.1952 107.289 15.5754C106.909 15.9556 106.448 16.1458 105.906 16.1458ZM116.797 16.1458C116.255 16.1458 115.789 15.9556 115.398 15.5754C115.008 15.1952 114.812 14.7343 114.812 14.1926C114.812 13.6562 115.008 13.1926 115.398 12.802C115.789 12.4062 116.255 12.2083 116.797 12.2083C117.339 12.2083 117.799 12.4036 118.18 12.7942C118.56 13.1848 118.75 13.651 118.75 14.1926C118.75 14.7343 118.56 15.1952 118.18 15.5754C117.799 15.9556 117.339 16.1458 116.797 16.1458ZM123.297 16.1458C122.755 16.1458 122.289 15.9556 121.898 15.5754C121.508 15.1952 121.312 14.7343 121.312 14.1926C121.312 13.6562 121.508 13.1926 121.898 12.802C122.289 12.4062 122.755 12.2083 123.297 12.2083C123.839 12.2083 124.299 12.4036 124.68 12.7942C125.06 13.1848 125.25 13.651 125.25 14.1926C125.25 14.7343 125.06 15.1952 124.68 15.5754C124.299 15.9556 123.839 16.1458 123.297 16.1458ZM129.797 16.1458C129.255 16.1458 128.789 15.9556 128.398 15.5754C128.008 15.1952 127.812 14.7343 127.812 14.1926C127.812 13.6562 128.008 13.1926 128.398 12.802C128.789 12.4062 129.255 12.2083 129.797 12.2083C130.339 12.2083 130.799 12.4036 131.18 12.7942C131.56 13.1848 131.75 13.651 131.75 14.1926C131.75 14.7343 131.56 15.1952 131.18 15.5754C130.799 15.9556 130.339 16.1458 129.797 16.1458ZM136.297 16.1458C135.755 16.1458 135.289 15.9556 134.898 15.5754C134.508 15.1952 134.312 14.7343 134.312 14.1926C134.312 13.6562 134.508 13.1926 134.898 12.802C135.289 12.4062 135.755 12.2083 136.297 12.2083C136.839 12.2083 137.299 12.4036 137.68 12.7942C138.06 13.1848 138.25 13.651 138.25 14.1926C138.25 14.7343 138.06 15.1952 137.68 15.5754C137.299 15.9556 136.839 16.1458 136.297 16.1458ZM149.578 19.3333H148.297V9.65356C148.198 9.75252 148.052 9.86711 147.859 9.99731C147.672 10.1223 147.458 10.2473 147.219 10.3723C146.984 10.4973 146.734 10.6145 146.469 10.7239C146.208 10.8333 145.953 10.9192 145.703 10.9817V9.68481C145.984 9.60669 146.281 9.50252 146.594 9.37231C146.911 9.2369 147.221 9.08846 147.523 8.927C147.831 8.76034 148.12 8.58846 148.391 8.41138C148.661 8.22909 148.896 8.052 149.094 7.88013H149.578V19.3333ZM158.578 11.0676C158.578 10.7239 158.523 10.4244 158.414 10.1692C158.31 9.91398 158.164 9.70304 157.977 9.53638C157.794 9.3645 157.578 9.2369 157.328 9.15356C157.078 9.07023 156.807 9.02856 156.516 9.02856C156.266 9.02856 156.021 9.06242 155.781 9.13013C155.542 9.19784 155.307 9.29159 155.078 9.41138C154.854 9.53117 154.635 9.6744 154.422 9.84106C154.214 10.0077 154.018 10.1926 153.836 10.3958V9.02075C154.195 8.67179 154.596 8.40617 155.039 8.22388C155.487 8.03638 156.031 7.94263 156.672 7.94263C157.13 7.94263 157.555 8.01034 157.945 8.14575C158.336 8.27596 158.674 8.46867 158.961 8.72388C159.247 8.97909 159.471 9.29419 159.633 9.66919C159.799 10.0442 159.883 10.4739 159.883 10.9583C159.883 11.401 159.831 11.802 159.727 12.1614C159.628 12.5208 159.474 12.8593 159.266 13.177C159.062 13.4947 158.805 13.7994 158.492 14.0911C158.18 14.3827 157.812 14.6796 157.391 14.9817C156.865 15.3567 156.43 15.677 156.086 15.9426C155.747 16.2083 155.477 16.4583 155.273 16.6926C155.076 16.9218 154.935 17.1536 154.852 17.3879C154.773 17.6171 154.734 17.8827 154.734 18.1848H160.312V19.3333H153.398V18.7786C153.398 18.2994 153.451 17.8775 153.555 17.5129C153.659 17.1484 153.831 16.802 154.07 16.4739C154.31 16.1458 154.622 15.8176 155.008 15.4895C155.398 15.1614 155.875 14.7916 156.438 14.3801C156.844 14.0885 157.182 13.8098 157.453 13.5442C157.729 13.2786 157.951 13.0129 158.117 12.7473C158.284 12.4817 158.401 12.2135 158.469 11.9426C158.542 11.6666 158.578 11.3749 158.578 11.0676ZM168.617 16.1614C168.617 16.6666 168.521 17.1275 168.328 17.5442C168.141 17.9556 167.872 18.3098 167.523 18.6067C167.18 18.8984 166.766 19.1249 166.281 19.2864C165.797 19.4478 165.263 19.5286 164.68 19.5286C163.612 19.5286 162.763 19.3254 162.133 18.9192V17.5442C162.888 18.1379 163.753 18.4348 164.727 18.4348C165.117 18.4348 165.469 18.3853 165.781 18.2864C166.099 18.1874 166.37 18.0442 166.594 17.8567C166.823 17.6692 166.997 17.4426 167.117 17.177C167.242 16.9114 167.305 16.6119 167.305 16.2786C167.305 14.815 166.263 14.0833 164.18 14.0833H163.25V12.9973H164.133C165.977 12.9973 166.898 12.3098 166.898 10.9348C166.898 9.66398 166.195 9.02856 164.789 9.02856C163.997 9.02856 163.255 9.29419 162.562 9.82544V8.58325C163.276 8.15617 164.125 7.94263 165.109 7.94263C165.578 7.94263 166.003 8.00773 166.383 8.13794C166.763 8.26815 167.089 8.45044 167.359 8.68481C167.63 8.91919 167.839 9.20044 167.984 9.52856C168.135 9.85669 168.211 10.2187 168.211 10.6145C168.211 12.0885 167.466 13.0364 165.977 13.4583V13.4895C166.357 13.5312 166.708 13.6249 167.031 13.7708C167.354 13.9114 167.633 14.0963 167.867 14.3254C168.102 14.5546 168.284 14.8254 168.414 15.1379C168.549 15.4452 168.617 15.7864 168.617 16.1614ZM176.438 8.13013V15.5286H177.875V16.7004H176.438V19.3333H175.172V16.7004H169.906V15.5911C170.396 15.039 170.891 14.4504 171.391 13.8254C171.891 13.1952 172.367 12.5572 172.82 11.9114C173.279 11.2655 173.701 10.6223 174.086 9.98169C174.477 9.33586 174.805 8.71867 175.07 8.13013H176.438ZM171.352 15.5286H175.172V10.0442C174.781 10.7265 174.411 11.3359 174.062 11.8723C173.714 12.4088 173.38 12.8958 173.062 13.3333C172.75 13.7708 172.451 14.1666 172.164 14.5208C171.878 14.8749 171.607 15.2109 171.352 15.5286Z" fill="black"/>
<path d="M198.969 13.6848C198.969 14.6223 198.883 15.453 198.711 16.177C198.544 16.901 198.299 17.5129 197.977 18.0129C197.659 18.5077 197.266 18.8853 196.797 19.1458C196.333 19.401 195.805 19.5286 195.211 19.5286C194.648 19.5286 194.146 19.4062 193.703 19.1614C193.266 18.9114 192.896 18.5494 192.594 18.0754C192.292 17.6015 192.062 17.0208 191.906 16.3333C191.75 15.6405 191.672 14.8489 191.672 13.9583C191.672 12.9791 191.753 12.1145 191.914 11.3645C192.081 10.6145 192.323 9.9869 192.641 9.48169C192.958 8.97127 193.352 8.58846 193.82 8.33325C194.294 8.07284 194.836 7.94263 195.445 7.94263C197.794 7.94263 198.969 9.85669 198.969 13.6848ZM197.656 13.8098C197.656 10.6223 196.898 9.02856 195.383 9.02856C193.784 9.02856 192.984 10.651 192.984 13.8958C192.984 16.9218 193.768 18.4348 195.336 18.4348C196.883 18.4348 197.656 16.8931 197.656 13.8098ZM205.281 19.3333H204V9.65356C203.901 9.75252 203.755 9.86711 203.562 9.99731C203.375 10.1223 203.161 10.2473 202.922 10.3723C202.688 10.4973 202.438 10.6145 202.172 10.7239C201.911 10.8333 201.656 10.9192 201.406 10.9817V9.68481C201.688 9.60669 201.984 9.50252 202.297 9.37231C202.615 9.2369 202.924 9.08846 203.227 8.927C203.534 8.76034 203.823 8.58846 204.094 8.41138C204.365 8.22909 204.599 8.052 204.797 7.88013H205.281V19.3333ZM214.602 8.13013L209.227 21.1926H208.031L213.391 8.13013H214.602ZM221.93 16.1614C221.93 16.6666 221.833 17.1275 221.641 17.5442C221.453 17.9556 221.185 18.3098 220.836 18.6067C220.492 18.8984 220.078 19.1249 219.594 19.2864C219.109 19.4478 218.576 19.5286 217.992 19.5286C216.924 19.5286 216.076 19.3254 215.445 18.9192V17.5442C216.201 18.1379 217.065 18.4348 218.039 18.4348C218.43 18.4348 218.781 18.3853 219.094 18.2864C219.411 18.1874 219.682 18.0442 219.906 17.8567C220.135 17.6692 220.31 17.4426 220.43 17.177C220.555 16.9114 220.617 16.6119 220.617 16.2786C220.617 14.815 219.576 14.0833 217.492 14.0833H216.562V12.9973H217.445C219.289 12.9973 220.211 12.3098 220.211 10.9348C220.211 9.66398 219.508 9.02856 218.102 9.02856C217.31 9.02856 216.568 9.29419 215.875 9.82544V8.58325C216.589 8.15617 217.438 7.94263 218.422 7.94263C218.891 7.94263 219.315 8.00773 219.695 8.13794C220.076 8.26815 220.401 8.45044 220.672 8.68481C220.943 8.91919 221.151 9.20044 221.297 9.52856C221.448 9.85669 221.523 10.2187 221.523 10.6145C221.523 12.0885 220.779 13.0364 219.289 13.4583V13.4895C219.669 13.5312 220.021 13.6249 220.344 13.7708C220.667 13.9114 220.945 14.0963 221.18 14.3254C221.414 14.5546 221.596 14.8254 221.727 15.1379C221.862 15.4452 221.93 15.7864 221.93 16.1614ZM231.078 13.6848C231.078 14.6223 230.992 15.453 230.82 16.177C230.654 16.901 230.409 17.5129 230.086 18.0129C229.768 18.5077 229.375 18.8853 228.906 19.1458C228.443 19.401 227.914 19.5286 227.32 19.5286C226.758 19.5286 226.255 19.4062 225.812 19.1614C225.375 18.9114 225.005 18.5494 224.703 18.0754C224.401 17.6015 224.172 17.0208 224.016 16.3333C223.859 15.6405 223.781 14.8489 223.781 13.9583C223.781 12.9791 223.862 12.1145 224.023 11.3645C224.19 10.6145 224.432 9.9869 224.75 9.48169C225.068 8.97127 225.461 8.58846 225.93 8.33325C226.404 8.07284 226.945 7.94263 227.555 7.94263C229.904 7.94263 231.078 9.85669 231.078 13.6848ZM229.766 13.8098C229.766 10.6223 229.008 9.02856 227.492 9.02856C225.893 9.02856 225.094 10.651 225.094 13.8958C225.094 16.9218 225.878 18.4348 227.445 18.4348C228.992 18.4348 229.766 16.8931 229.766 13.8098Z" fill="black"/>
<defs>
<linearGradient id="paint0_linear_7_4131" x1="21.8591" y1="9.95618" x2="30.4267" y2="9.95618" gradientUnits="userSpaceOnUse">
<stop stop-color="#00A3E1"/>
<stop offset="0.3042" stop-color="#009ADD"/>
<stop offset="0.7987" stop-color="#0082D4"/>
<stop offset="1" stop-color="#0076CF"/>
</linearGradient>
</defs>
</svg>
